<svg xmlns="http://www.w3.org/2000/svg" fill="none" viewBox="0 0 420 62">
  <path fill="#434254" d="M19.578 15.107V28.87H8.26V15.107H0v35.915h8.26V36.767h11.35v14.255h8.227V15.107h-8.26zm27.246 10.257v14.025c0 3.637-1.974 5.276-4.804 5.276-2.468 0-4.475-1.475-4.475-4.686V25.364h-7.733v15.762c0 6.914 4.442 10.617 9.641 10.617 3.39 0 5.989-1.245 7.37-3.146v2.425h7.734V25.364h-7.733zm28.726 0v2.621c-1.711-2.097-4.179-3.342-7.535-3.342-7.305 0-12.669 5.964-12.669 13.042 0 7.078 5.364 13.042 12.669 13.042 3.356 0 5.824-1.245 7.535-3.342v2.36c0 3.637-2.205 5.505-5.824 5.505-3.39 0-4.903-1.442-5.89-3.245l-6.581 3.802C59.624 60 64.099 62 69.463 62c6.844 0 13.59-3.637 13.59-12.256v-24.38H75.55zm-6.252 18.252c-3.652 0-6.219-2.425-6.219-5.964 0-3.539 2.567-5.964 6.219-5.964 3.653 0 6.22 2.425 6.22 5.964 0 3.54-2.535 5.964-6.22 5.964zm28.233 8.127c7.568 0 13.655-5.898 13.655-13.534 0-7.635-6.087-13.534-13.656-13.534-7.568 0-13.655 5.899-13.655 13.534 0 7.636 6.087 13.534 13.656 13.534zm0-7.504c-3.357 0-5.923-2.425-5.923-6.063 0-3.637 2.566-6.062 5.922-6.062 3.357 0 5.923 2.425 5.923 6.063 0 3.637-2.566 6.062-5.922 6.062zm23.987-29.132v35.915h8.259V15.107h-8.259zm28.134 9.536c-3.389 0-5.989 1.245-7.371 3.146v-2.425h-7.732v25.658h7.732V36.997c0-3.638 1.975-5.276 4.805-5.276 2.467 0 4.475 1.475 4.475 4.686v14.615h7.732V35.26c0-6.914-4.442-10.617-9.641-10.617zm21.092 8.225c0-.918.823-1.442 2.172-1.442 1.711 0 2.731.918 3.455 2.261l6.581-3.539c-2.172-3.637-5.89-5.505-10.036-5.505-5.364 0-10.102 2.818-10.102 8.422 0 8.88 12.669 7.405 12.669 10.224 0 1.015-.922 1.605-2.797 1.605-2.271 0-3.719-1.081-4.377-3.014l-6.712 3.8c2.007 4.163 5.923 6.096 11.089 6.096 5.561 0 10.727-2.523 10.727-8.422.033-9.536-12.669-7.57-12.669-10.486zm32.05-7.504v14.025c0 3.637-1.975 5.276-4.804 5.276-2.468 0-4.475-1.475-4.475-4.686V25.364h-7.733v15.762c0 6.914 4.442 10.617 9.641 10.617 3.389 0 5.989-1.245 7.371-3.146v2.425h7.732V25.364h-7.732zm19.973 4.555v-4.555h-7.733v25.658h7.733v-11.6c0-5.08 4.541-6.357 7.733-5.866v-8.717c-3.258 0-6.713 1.639-7.733 5.08zm28.134-4.555v2.425c-1.711-1.967-4.212-3.146-7.667-3.146-6.745 0-12.306 5.898-12.306 13.533 0 7.636 5.561 13.534 12.306 13.534 3.455 0 5.989-1.18 7.667-3.145v2.424h7.733V25.364h-7.733zm-6.153 19.104c-3.554 0-6.121-2.425-6.121-6.259 0-3.834 2.567-6.259 6.121-6.259 3.553 0 6.12 2.425 6.12 6.26 0 3.833-2.567 6.258-6.12 6.258zm33.497-19.825c-3.389 0-5.989 1.245-7.371 3.146v-2.425h-7.732v25.658h7.732V36.997c0-3.638 1.975-5.276 4.804-5.276 2.468 0 4.476 1.475 4.476 4.686v14.615h7.732V35.26c0-6.914-4.442-10.617-9.641-10.617zm26.16 27.1c5.034 0 9.443-2.621 11.648-6.62l-6.746-3.833c-.822 1.802-2.731 2.883-5.001 2.883-3.356 0-5.824-2.425-5.824-5.964 0-3.539 2.468-5.964 5.824-5.964 2.27 0 4.113 1.082 5.001 2.884l6.746-3.9c-2.205-3.965-6.647-6.553-11.648-6.553-7.832 0-13.656 5.898-13.656 13.533 0 7.636 5.824 13.534 13.656 13.534zm19.973-10.486h18.295c.198-.983.296-2 .296-3.08 0-7.734-5.561-13.534-13.096-13.534-8.127 0-13.721 5.898-13.721 13.533 0 7.636 5.462 13.534 14.28 13.534 4.903 0 8.72-1.802 11.221-5.276l-6.186-3.539c-1.02 1.114-2.83 1.966-4.936 1.966-2.797 0-5.166-.917-6.153-3.604zm-.132-5.735c.724-2.621 2.666-4.063 5.627-4.063 2.303 0 4.64 1.081 5.462 4.063h-11.089zm94.866-17.072h-22.968l1.744 6.815h.131a3.634 3.634 0 013.258-3.178l17.933-1.835c.461-.066.79-.426.79-.885.033-.524-.395-.918-.888-.918z"/>
  <path fill="#B6DD4C" d="M390.945 15.172a8.47 8.47 0 00-2.04-.23c-5.397 0-11.747 2.885-15.795 5.998 0 0-8.555 14.812-10.431 16.024a29.373 29.373 0 00-.822 6.849l-4.706 4.686-2.566 2.556h14.544a29.36 29.36 0 008.555-1.278c-.823-1.835 6.022-18.548 6.219-18.646-.164-.59 2.369-7.504 3.521-8.16h3.521V18.45h1.217l-1.217-3.277z"/>
  <path fill="#A0CA28" d="M365.18 30.345a28.977 28.977 0 00-1.777 4.129c-.263.819-.526 1.638-.724 2.49a25.395 25.395 0 0113.722-3.998c-2.534-.033-10.727-2.392-11.221-2.621z"/>
  <path fill="#D1F374" d="M378.967 26.74l-5.857-5.833-8.226-8.192c2.632 2.621 4.245 19.17 4.245 19.17a25.33 25.33 0 007.272 1.048c1.02 0 1.908-.393 2.566-1.048a3.611 3.611 0 001.053-2.556 3.631 3.631 0 00-1.053-2.589z"/>
  <path fill="#6E66DB" d="M369.129 22.939c0-3.998-1.613-7.603-4.245-10.224l-.033-.033L352.117 0a25.106 25.106 0 00-1.152 7.57c0 .459 0 .885.033 1.31.494 9.438 6.153 17.5 14.215 21.432.494.23.987.459 1.481.655.79.328 1.612.623 2.468.852-.033.066-.033-8.258-.033-8.88z"/>
  <path fill="#EFEFEF" d="M383.903 31.131a4.95 4.95 0 00-.559.328c-.428.262-.856.557-1.251.852-.427.328-.855.688-1.217 1.048a14.39 14.39 0 00-4.475 10.454c0 2.13.46 4.129 1.283 5.964a29.286 29.286 0 0015.104-10.847 30.74 30.74 0 002.204-3.572c-1.151.754-11.023-4.03-11.089-4.227z"/>
  <path fill="#ED56A1" d="M398.085 23.463c-.066-.688-.164-1.376-.362-2.032a9.249 9.249 0 00-3.586-4.882 9.32 9.32 0 00-3.192-1.41v3.277c2.007 0 1.678 6.784 0 6.784s-3.126-.688-3.521-2.261a7.094 7.094 0 00-2.764 2.72 7.142 7.142 0 00-.987 3.604c0 .623.099 1.213.23 1.802.066.23.132.426.198.623.033.066.065.164.098.23.461 1.18 1.251 2.195 2.238 2.982a7.058 7.058 0 002.665 1.343 7.006 7.006 0 001.876.262 7.44 7.44 0 004.047-1.212 26.8 26.8 0 001.941-4.719c.362-1.18.659-2.425.856-3.67.099-.59.197-1.18.263-1.802v-.132c.033-.294.033-.59.033-.884 0-.197-.033-.426-.033-.623z"/>
  <path fill="#fff" d="M390.945 25.659a3.612 3.612 0 003.619-3.605c0-1.99-1.62-3.605-3.619-3.605a3.612 3.612 0 00-3.62 3.605 3.613 3.613 0 003.62 3.605z"/>
  <path fill="#434254" d="M390.945 24.774a2.726 2.726 0 002.731-2.72 2.726 2.726 0 00-2.731-2.72 2.725 2.725 0 00-2.731 2.72 2.725 2.725 0 002.731 2.72z"/>
</svg>
